<?xml version="1.0" standalone="no"?>
<!DOCTYPE svg PUBLIC "-//W3C//DTD SVG 20010904//EN"
 "http://www.w3.org/TR/2001/REC-SVG-20010904/DTD/svg10.dtd">
<svg version="1.0" xmlns="http://www.w3.org/2000/svg"
 width="300.000000pt" height="300.000000pt" viewBox="0 0 300.000000 300.000000"
 preserveAspectRatio="xMidYMid meet">
<metadata>
Created by potrace 1.11, written by Peter Selinger 2001-2013
</metadata>
<g transform="translate(0.000000,300.000000) scale(0.100000,-0.100000)"
fill="#000000" stroke="none">
<path d="M1590 2368 c-19 -5 -39 -14 -45 -20 -7 -8 -4 -9 10 -3 11 4 35 10 53
13 17 2 32 8 32 13 0 11 -4 10 -50 -3z"/>
<path d="M1688 2363 c7 -3 16 -2 19 1 4 3 -2 6 -13 5 -11 0 -14 -3 -6 -6z"/>
<path d="M1790 2357 c76 -31 77 -31 53 -13 -12 9 -37 19 -55 22 l-33 5 35 -14z"/>
<path d="M1455 2278 l-40 -43 43 40 c39 36 47 45 39 45 -2 0 -21 -19 -42 -42z"/>
<path d="M1883 2306 c31 -24 86 -109 103 -158 16 -51 31 -66 20 -22 -5 18 -3
24 5 19 7 -5 7 0 -2 16 -31 60 -115 159 -133 159 -6 0 -3 -7 7 -14z"/>
<path d="M1396 2211 c-20 -22 -39 -81 -25 -81 5 0 11 12 15 28 4 15 13 37 20
50 17 27 13 29 -10 3z"/>
<path d="M1555 2173 c-26 -39 -31 -53 -17 -53 4 0 18 20 30 45 26 55 21 58
-13 8z"/>
<path d="M1771 2134 c0 -11 3 -14 6 -6 3 7 2 16 -1 19 -3 4 -6 -2 -5 -13z"/>
<path d="M1747 2072 c-9 -21 -33 -57 -53 -80 -19 -23 -31 -42 -26 -42 5 0 27
25 48 56 36 52 39 54 45 33 5 -17 7 -10 8 24 1 26 0 47 -2 47 -2 0 -11 -17
-20 -38z"/>
<path d="M1531 2084 c0 -11 3 -14 6 -6 3 7 2 16 -1 19 -3 4 -6 -2 -5 -13z"/>
<path d="M1351 2054 c0 -17 2 -52 5 -76 6 -42 9 -46 44 -57 20 -6 39 -11 42
-11 2 0 1 30 -3 68 -5 37 -9 74 -10 82 -1 8 -5 -3 -9 -25 -4 -22 -4 -48 1 -57
5 -9 9 -27 9 -39 0 -34 -18 -11 -29 36 l-9 40 -1 -37 c-2 -63 -18 -43 -28 35
-6 39 -11 58 -12 41z"/>
<path d="M1782 1990 c-6 -11 -12 -23 -12 -27 0 -5 5 -1 10 7 6 9 10 10 10 3 0
-6 -5 -15 -10 -18 -6 -4 -8 -15 -5 -26 5 -15 -10 -57 -43 -121 -6 -12 66 -10
73 2 4 6 -6 7 -27 3 l-33 -6 31 34 c54 61 84 107 83 131 0 17 -7 9 -24 -29
-31 -66 -50 -80 -41 -29 4 21 10 44 13 52 3 8 0 14 -6 14 -6 0 -8 7 -5 15 9
21 1 19 -14 -5z"/>
<path d="M1526 1955 c10 -59 26 -80 20 -26 -2 24 -10 49 -16 55 -9 8 -10 1 -4
-29z"/>
<path d="M1462 1950 c0 -14 2 -19 5 -12 2 6 2 18 0 25 -3 6 -5 1 -5 -13z"/>
<path d="M1872 1945 c0 -16 2 -22 5 -12 2 9 2 23 0 30 -3 6 -5 -1 -5 -18z"/>
<path d="M1720 1915 c-13 -14 -24 -36 -26 -49 -1 -13 -11 -37 -20 -53 l-18
-28 22 19 c23 20 84 136 72 136 -4 0 -17 -11 -30 -25z"/>
<path d="M1891 1884 c-38 -91 -95 -144 -156 -144 -14 0 -25 -4 -25 -9 0 -4 19
-4 43 1 23 5 49 9 57 9 24 1 99 113 106 159 4 22 5 40 2 40 -2 0 -15 -25 -27
-56z"/>
<path d="M1262 1910 c0 -14 2 -19 5 -12 2 6 2 18 0 25 -3 6 -5 1 -5 -13z"/>
<path d="M1595 1910 c-27 -30 -12 -34 15 -5 13 14 19 25 13 25 -5 0 -18 -9
-28 -20z"/>
<path d="M1745 1894 c-9 -15 -12 -23 -6 -20 11 7 35 46 28 46 -3 0 -12 -12
-22 -26z"/>
<path d="M1856 1885 c-4 -16 -14 -37 -22 -47 -10 -10 -12 -18 -5 -22 12 -8 43
61 38 84 -1 8 -6 2 -11 -15z"/>
<path d="M1931 1855 c-13 -27 -31 -59 -40 -69 -15 -18 -15 -18 7 -7 12 6 22
16 22 21 0 18 20 10 21 -7 0 -13 3 -11 10 7 6 13 8 42 7 65 l-4 40 -23 -50z"/>
<path d="M1261 1863 c0 -12 -12 -39 -26 -59 -14 -21 -23 -44 -20 -52 3 -8 1
-20 -4 -26 -5 -6 -20 -38 -32 -71 -17 -45 -37 -75 -84 -121 -52 -50 -87 -104
-68 -104 11 0 49 24 56 36 4 8 13 14 20 14 7 0 36 47 64 103 64 125 80 143
116 126 15 -7 24 -16 21 -21 -3 -4 -9 -6 -13 -3 -5 2 -16 -4 -26 -15 -28 -31
3 -25 49 10 27 20 34 30 22 30 -23 0 -116 40 -116 50 0 5 12 22 26 39 18 21
24 39 21 58 -3 22 -4 23 -6 6z"/>
<path d="M1373 1703 c9 -2 23 -2 30 0 6 3 -1 5 -18 5 -16 0 -22 -2 -12 -5z"/>
<path d="M1407 1663 c-22 -27 -71 -88 -111 -138 -82 -101 -153 -174 -209 -215
l-37 -28 52 -45 51 -44 -13 -79 c-8 -43 -13 -81 -12 -84 2 -3 20 -4 42 -2 34
3 40 1 45 -20 2 -13 14 -68 26 -123 20 -98 35 -151 87 -310 14 -45 24 -98 23
-122 -2 -41 -1 -43 27 -43 16 0 50 -3 75 -6 43 -6 45 -5 40 14 -3 12 -14 24
-24 27 -10 4 -19 12 -19 20 0 7 -5 15 -12 17 -25 9 -5 313 27 406 6 17 82 -22
161 -85 152 -119 192 -152 253 -205 36 -32 68 -58 71 -58 3 0 29 21 58 46 56
49 61 72 9 50 -30 -12 -34 -11 -58 13 -13 14 -62 98 -108 186 -46 88 -92 172
-102 187 -11 15 -31 53 -46 84 -23 50 -25 65 -20 130 4 47 3 74 -4 76 -6 2
-14 19 -18 38 -6 27 -12 34 -27 31 -18 -3 -18 -2 1 20 l20 22 -22 -5 c-25 -7
-32 6 -9 15 8 3 14 18 14 34 0 25 9 61 43 171 6 19 8 36 5 39 -3 4 -6 -1 -6
-10 0 -22 -2 -22 -58 7 -27 14 -74 26 -112 30 l-65 6 -38 -47z m-177 -253 c0
-5 -5 -10 -11 -10 -5 0 -7 5 -4 10 3 6 8 10 11 10 2 0 4 -4 4 -10z m-30 -80
c-12 -16 -26 -30 -31 -30 -7 0 -8 -13 -4 -32 l6 -33 -20 25 -21 25 24 20 c13
11 32 33 42 49 10 16 20 24 22 18 2 -7 -6 -25 -18 -42z m400 -19 l-21 -30 27
-41 c27 -40 26 -72 0 -34 -8 10 -23 30 -33 43 l-20 25 31 43 c17 24 32 39 34
34 2 -6 -6 -24 -18 -40z m20 -31 c0 -5 -4 -10 -10 -10 -5 0 -10 5 -10 10 0 6
5 10 10 10 6 0 10 -4 10 -10z m-496 -15 c3 -9 0 -15 -9 -15 -8 0 -15 7 -15 15
0 8 4 15 9 15 5 0 11 -7 15 -15z m405 -25 c-21 -14 -32 1 -12 15 12 9 19 10
22 3 2 -6 -3 -14 -10 -18z m120 -62 c-8 -14 -14 -18 -17 -10 -4 13 17 46 25
38 3 -2 -1 -15 -8 -28z m-135 6 c9 -3 16 -11 16 -16 0 -6 -7 -7 -16 -4 -15 6
-15 4 -3 -10 8 -10 15 -12 17 -5 5 14 42 14 42 0 0 -19 -61 -163 -74 -177 -11
-11 -24 -9 -78 17 -58 27 -89 37 -180 56 -22 4 -28 11 -28 31 0 14 -4 23 -10
19 -6 -4 -8 -11 -4 -16 8 -14 -15 -39 -37 -39 -11 0 -19 7 -19 15 0 8 7 15 16
15 8 0 22 16 30 35 18 43 30 45 39 5 5 -22 14 -32 33 -36 74 -17 110 -28 160
-50 30 -13 58 -24 61 -24 4 0 18 25 31 57 l23 56 -21 18 c-12 9 -22 27 -22 38
0 23 1 24 24 15z"/>
<path d="M1662 1445 c0 -11 4 -33 8 -50 7 -27 8 -27 8 -5 0 14 -4 36 -8 50 -6
20 -8 21 -8 5z"/>
<path d="M868 1413 c6 -2 18 -2 25 0 6 3 1 5 -13 5 -14 0 -19 -2 -12 -5z"/>
<path d="M2450 850 c-9 -6 -10 -10 -3 -10 6 0 15 5 18 10 8 12 4 12 -15 0z"/>
<path d="M2198 763 c-33 -26 -74 -72 -66 -76 1 -1 27 22 55 51 60 59 62 64 11
25z"/>
<path d="M1580 420 c0 -5 9 -10 19 -10 11 0 23 5 26 10 4 6 -5 10 -19 10 -14
0 -26 -4 -26 -10z"/>
<path d="M1290 416 c0 -2 9 -6 20 -9 11 -3 20 -1 20 4 0 5 -9 9 -20 9 -11 0
-20 -2 -20 -4z"/>
<path d="M1019 374 c-11 -14 -10 -15 11 -12 13 1 25 9 28 16 5 17 -23 15 -39
-4z"/>
<path d="M1075 380 c3 -5 11 -10 16 -10 6 0 7 5 4 10 -3 6 -11 10 -16 10 -6 0
-7 -4 -4 -10z"/>
<path d="M1718 363 c6 -2 18 -2 25 0 6 3 1 5 -13 5 -14 0 -19 -2 -12 -5z"/>
</g>
</svg>
